<?xml version="1.0" encoding="UTF-8" standalone="no"?>
<svg
   xmlns:dc="http://purl.org/dc/elements/1.1/"
   xmlns:cc="http://creativecommons.org/ns#"
   xmlns:rdf="http://www.w3.org/1999/02/22-rdf-syntax-ns#"
   xmlns:svg="http://www.w3.org/2000/svg"
   xmlns="http://www.w3.org/2000/svg"
   xmlns:sodipodi="http://sodipodi.sourceforge.net/DTD/sodipodi-0.dtd"
   xmlns:inkscape="http://www.inkscape.org/namespaces/inkscape"
   width="91.32518mm"
   height="36.371086mm"
   viewBox="0 0 323.59316 128.87393"
   id="svg2"
   version="1.1"
   inkscape:version="0.91 r13725"
   sodipodi:docname="sensything_pc.svg">
  <sodipodi:namedview
     pagecolor="#ffffff"
     bordercolor="#666666"
     borderopacity="1"
     objecttolerance="10"
     gridtolerance="10"
     guidetolerance="10"
     inkscape:pageopacity="0"
     inkscape:pageshadow="2"
     inkscape:window-width="1324"
     inkscape:window-height="633"
     id="namedview15"
     showgrid="false"
     fit-margin-top="0"
     fit-margin-left="0"
     fit-margin-right="0"
     fit-margin-bottom="0"
     inkscape:zoom="3.3443537"
     inkscape:cx="161.79658"
     inkscape:cy="64.436964"
     inkscape:window-x="0"
     inkscape:window-y="0"
     inkscape:window-maximized="0"
     inkscape:current-layer="svg2" />
  <defs
     id="defs4" />
  <metadata
     id="metadata7">
    <rdf:RDF>
      <cc:Work
         rdf:about="">
        <dc:format>image/svg+xml</dc:format>
        <dc:type
           rdf:resource="http://purl.org/dc/dcmitype/StillImage" />
        <dc:title />
      </cc:Work>
    </rdf:RDF>
  </metadata>
  <g
     id="layer1"
     transform="translate(-324.61229,-73.653073)">
    <path
       style="fill:#800080"
       d="m 427.29908,202.33775 c -0.62801,-0.15931 -1.78537,-0.67505 -2.57192,-1.14607 -1.20777,-0.72328 -1.53225,-1.13223 -2.08729,-2.63071 -0.83825,-2.26313 -0.82739,-2.64634 0.1724,-6.0876 1.11351,-3.83266 4.35796,-9.20006 7.05794,-11.67619 1.05892,-0.97113 3.00456,-3.04145 4.32362,-4.6007 3.52429,-4.16604 4.41829,-5.03927 15.67697,-15.31294 2.80605,-2.56054 6.99281,-5.59723 12.02049,-8.71854 4.48794,-2.78624 9.43897,-8.41905 9.43897,-10.73878 0,-0.53172 0.4471,-1.81625 0.99357,-2.8545 0.87561,-1.6636 1.35807,-4.14263 0.80621,-4.14263 -0.50376,0 -1.87256,0.81647 -4.27677,2.55104 -3.23957,2.33724 -6.11646,3.96262 -7.73177,4.36824 -0.66955,0.16813 -2.26062,0.36559 -3.53571,0.43879 -2.73853,0.1572 -4.19196,-0.32926 -5.3672,-1.79637 -1.15313,-1.43954 -1.26612,-2.57464 -0.47992,-4.82183 0.38152,-1.09047 0.91114,-2.87348 1.17695,-3.96226 0.48911,-2.00339 1.93731,-4.50495 4.71745,-8.1487 0.77341,-1.01366 1.80353,-2.50501 2.28915,-3.31411 1.08377,-1.80565 1.95124,-2.62142 3.45943,-3.25324 1.76892,-0.74104 3.21017,-0.88439 4.47196,-0.44475 0.8861,0.30873 1.16504,0.59509 1.34083,1.37653 0.20176,0.89682 5.6e-4,1.26978 -2.20875,4.09455 -2.5429,3.25128 -5.72684,8.16666 -6.88393,10.62742 -0.66989,1.42464 -0.67037,1.44745 -0.0365,1.73033 0.54817,0.24464 1.14178,-0.0711 4.04932,-2.15422 1.87384,-1.3425 5.26994,-4.09515 7.54688,-6.117 2.27694,-2.02184 5.10863,-4.52604 6.29265,-5.56488 l 2.15274,-1.88881 2.28291,0.53827 c 1.25559,0.29603 2.30727,0.57226 2.33706,0.61383 0.0298,0.0416 -0.0382,1.25624 -0.15109,2.69926 -0.16862,2.15531 -0.39298,2.95315 -1.25681,4.46939 -1.75426,3.07918 -2.32467,4.47216 -3.70209,9.04075 -0.72691,2.411 -1.47316,4.71594 -1.65833,5.12208 -0.18517,0.40613 -0.25039,1.02512 -0.14492,1.37553 0.17793,0.59114 0.28933,0.61884 1.54363,0.38383 1.46321,-0.27415 2.13337,-0.0124 1.80351,0.70443 -0.1063,0.23098 -1.16101,0.92963 -2.34383,1.55255 -3.71001,1.95386 -3.75713,2.01722 -9.96044,13.39238 -1.8995,3.48317 -3.19969,5.50897 -3.86728,6.0255 -0.78905,0.61053 -0.96075,0.92746 -0.79708,1.47129 0.15803,0.52501 -0.6315,2.21199 -3.25491,6.95477 -8.09205,14.62941 -7.85182,14.26743 -13.97401,21.05556 -4.87074,5.40055 -6.88297,6.72714 -12.39519,8.17172 -2.97564,0.77982 -5.71125,1.01194 -7.26889,0.61679 z m 5.39728,-5.9077 c 1.95367,-0.77648 4.50074,-2.75524 8.35349,-6.48962 3.87345,-3.75445 6.00992,-6.37421 6.87967,-8.43591 0.44785,-1.06163 2.89555,-4.15824 5.66592,-7.16803 0.69908,-0.75948 1.69123,-2.15924 2.2048,-3.11057 0.51356,-0.95134 2.65303,-4.45212 4.75437,-7.7795 3.12042,-4.94108 3.82062,-6.263 3.82062,-7.21311 l 0,-1.16331 -1.18996,0.16103 c -0.65448,0.0886 -1.70746,0.50873 -2.33994,0.9337 -0.6325,0.42498 -1.68977,1.11791 -2.34949,1.53985 -0.65973,0.42193 -2.85933,2.03756 -4.888,3.59029 -2.02866,1.55271 -4.67393,3.53874 -5.87835,4.41337 -3.27463,2.378 -6.30035,5.71002 -8.58745,9.45679 -1.11265,1.82275 -2.494,3.9355 -3.06968,4.69498 -3.74454,4.94021 -7.46585,12.29202 -7.46585,14.74953 0,1.03157 1.25798,2.23529 2.33603,2.23529 0.39061,0 1.17982,-0.18666 1.75382,-0.41478 z m 160.90898,2.47253 c -1.85661,-0.78315 -2.54679,-1.43469 -3.04054,-2.8703 -0.38739,-1.12637 0.93767,-5.11634 2.29823,-6.92037 0.5155,-0.68354 1.04496,-1.5535 1.17659,-1.93324 0.44213,-1.27563 2.80027,-4.81849 4.31986,-6.49013 0.82848,-0.91138 2.19913,-2.62185 3.04588,-3.80104 0.84675,-1.1792 2.44143,-2.93181 3.54374,-3.89471 1.10231,-0.96291 3.60881,-3.24385 5.57,-5.06876 4.11486,-3.82897 13.53013,-11.45007 15.17804,-12.28576 0.61631,-0.31253 2.09088,-1.39424 3.27684,-2.4038 1.186,-1.00956 3.03266,-2.44362 4.1037,-3.18679 2.6136,-1.81349 5.5576,-5.57245 6.68073,-8.53005 1.95877,-5.15823 2.71836,-9.29795 1.70604,-9.29795 -0.53361,0 -2.14106,1.40885 -4.88412,4.28073 -3.76777,3.94471 -8.60443,8.1105 -10.42522,8.97921 -3.21617,1.53442 -6.51176,1.36592 -9.07554,-0.46405 -1.55077,-1.1069 -1.99089,-2.17068 -1.76018,-4.25437 l 0.166,-1.49903 -2.2789,1.7997 c -6.37067,5.03111 -14.0197,10.13452 -15.54801,10.3736 -1.45537,0.22768 -2.95359,-0.48777 -4.25505,-2.03192 -0.97105,-1.15213 -0.97262,-1.16051 -0.56267,-3.02469 0.43155,-1.96241 2.46819,-7.25649 4.47877,-11.64214 2.31872,-5.05783 1.47847,-5.5724 -3.07833,-1.88519 -1.92887,1.56078 -3.97906,2.93663 -5.0399,3.38223 -0.98358,0.41313 -2.40718,1.22384 -3.16355,1.80157 -0.75638,0.57773 -2.00543,1.20787 -2.77568,1.4003 -1.3177,0.32922 -1.43701,0.31223 -2.01948,-0.28761 -0.34047,-0.35062 -0.61904,-0.82343 -0.61904,-1.05071 0,-0.55985 -0.18358,-0.48195 -5.29907,2.24867 -2.4591,1.31266 -6.26826,3.13515 -8.4648,4.04998 -4.44986,1.8533 -6.07813,2.08079 -8.67865,1.21254 -1.94238,-0.64852 -2.80615,-1.75566 -3.03706,-3.89275 l -0.18778,-1.738 -10.09516,10.66573 c -5.55234,5.86615 -10.49089,11.04915 -10.97456,11.51777 -0.48368,0.46862 -1.35358,1.31307 -1.93312,1.87654 -1.88271,1.83055 -6.13273,3.05176 -9.03857,2.59717 -1.34661,-0.21066 -3.69018,-1.80466 -4.45189,-3.02799 -0.87562,-1.40627 -0.77591,-4.71675 0.1884,-6.25529 0.42843,-0.68354 0.96222,-1.42921 1.18622,-1.65705 0.224,-0.22785 0.81297,-1.28422 1.30883,-2.3475 0.49586,-1.06328 1.71107,-3.14495 2.70047,-4.62594 0.98939,-1.48099 2.63677,-3.96657 3.66085,-5.52352 1.02406,-1.55694 3.3417,-5.002 5.15031,-7.65569 1.80859,-2.65369 3.31804,-5.05955 3.35432,-5.34635 0.0363,-0.28681 -0.17409,-0.65177 -0.46749,-0.81104 -0.4132,-0.2243 -1.01048,-0.0519 -2.64954,0.76504 -6.70737,3.34282 -10.20444,6.10951 -14.57624,11.53192 -2.2744,2.82098 -3.71779,4.32735 -4.6866,4.89112 -0.76999,0.44807 -2.03084,1.3278 -2.80191,1.95496 -0.77105,0.62716 -1.59075,1.0918 -1.82155,1.03252 -0.23079,-0.0593 -0.7177,-0.60232 -1.08201,-1.20675 l -0.66238,-1.09898 -1.98715,0.46963 c -2.30798,0.54545 -6.35854,0.64429 -8.76523,0.21388 -5.07928,-0.90836 -9.30578,-5.58072 -9.31086,-10.29308 -0.005,-4.48748 6.53866,-18.12416 11.1509,-23.23851 1.39872,-1.551 3.11673,-4.90156 3.11141,-6.06808 -0.009,-2.06717 0.93315,-1.9404 -14.47283,-1.94653 -13.3232,-0.006 -13.93776,-0.0286 -16.48854,-0.62542 -2.41483,-0.56498 -5.11142,-1.79948 -5.37588,-2.46109 -0.0582,-0.14574 0.30777,-0.44176 0.81342,-0.65781 0.75715,-0.3235 4.32021,-0.40684 20.1942,-0.47234 l 19.27485,-0.0795 1.47263,-1.8537 c 0.80995,-1.019547 1.69226,-2.288691 1.9607,-2.820324 0.26843,-0.531641 1.43913,-2.224926 2.60154,-3.762866 1.16241,-1.537936 2.51382,-3.362993 3.00313,-4.055684 1.13782,-1.610749 2.09831,-2.121559 4.35432,-2.31572 2.59426,-0.223274 3.37018,0.01731 4.31441,1.337672 l 0.81709,1.142603 -2.98187,3.067513 c -3.14288,3.233147 -6.89681,7.767806 -6.89681,8.331186 0,0.56553 3.90406,0.73249 12.15443,0.5198 l 7.81362,-0.20144 1.0281,-1.957485 c 1.52632,-2.906083 7.00942,-11.840379 8.55733,-13.943517 1.78709,-2.428124 5.21924,-8.067833 5.23087,-8.59537 0.0125,-0.569015 1.83854,-2.542811 2.73819,-2.959819 1.66617,-0.772307 3.54002,-0.320699 4.39588,1.059429 0.68939,1.111677 0.59839,1.285203 -4.10862,7.834116 -2.07447,2.886229 -5.61073,8.241643 -7.85837,11.900917 l -4.08662,6.653229 13.31454,0.21819 c 7.32301,0.12001 14.28329,0.29517 15.4673,0.38926 l 2.15275,0.17106 -1.98716,0.47395 c -2.88366,0.68776 -7.15913,1.25841 -10.76373,1.43664 -9.30553,0.46012 -19.46056,1.03623 -20.07099,1.13866 -0.52135,0.0875 -1.98975,2.07798 -5.84535,7.92377 -7.10141,10.767 -9.85237,15.49212 -9.85237,16.92262 0,0.8685 0.32499,1.51709 0.76015,1.51709 0.19696,0 1.70863,-0.85069 3.35929,-1.89041 7.0677,-4.45187 9.64376,-5.54916 13.05247,-5.55979 3.88054,-0.0121 5.6753,1.35967 5.20446,3.97785 -0.28583,1.58944 -1.61169,3.76408 -8.18442,13.42381 -5.52284,8.11675 -10.20829,15.68757 -10.89965,17.61178 -0.61044,1.69906 -0.0704,2.04268 1.5775,1.0037 3.03751,-1.91519 15.95359,-12.65285 22.23697,-18.48652 9.80012,-9.09871 13.34056,-13.14471 15.53457,-17.75282 0.62784,-1.31865 1.58641,-2.86595 2.13015,-3.43845 0.89166,-0.93879 1.1411,-1.04089 2.54307,-1.04089 1.80485,0 2.76906,0.47187 3.34871,1.63879 0.47804,0.96239 0.089,1.6394 -3.02599,5.26561 -2.96033,3.44618 -8.18838,11.65413 -8.2176,12.9015 -0.0159,0.67757 1.22317,0.93441 2.88132,0.59727 2.66305,-0.54148 8.64324,-2.64029 13.1575,-4.61777 4.80037,-2.10281 4.94685,-2.23726 6.81738,-6.25733 4.18225,-8.98833 5.60426,-11.81227 6.08214,-12.07847 0.20035,-0.11159 1.19335,-0.2048 2.20666,-0.20713 1.61025,-0.004 1.96006,0.0982 2.77628,0.80861 0.83507,0.72684 0.91431,0.95332 0.7489,2.14037 -0.10175,0.73013 -0.28747,1.60563 -0.41271,1.94556 -0.16076,0.43629 -0.0721,0.66781 0.30126,0.78731 0.49463,0.15827 3.87095,-1.7385 6.72966,-3.78064 1.49453,-1.06763 4.27358,-1.5228 5.88006,-0.96308 1.35047,0.47054 2.25936,1.84467 1.95097,2.94963 -0.16419,0.58832 -2.0947,4.30309 -5.58415,10.74534 -3.65901,6.75529 -5.03042,10.76768 -3.7542,10.98378 0.60861,0.10306 4.39192,-1.84336 7.40591,-3.81016 1.09293,-0.71321 3.25395,-1.89181 4.80227,-2.61911 1.54832,-0.7273 3.27782,-1.58356 3.84331,-1.90278 1.29734,-0.73236 6.27315,-6.88919 6.595,-8.16032 0.3103,-1.22546 6.5569,-6.64483 8.6183,-7.47696 1.94294,-0.78433 5.00534,-1.21795 6.91499,-0.97914 1.19647,0.14961 1.93483,0.46543 2.99706,1.28191 0.77522,0.59586 1.51454,1.08339 1.64294,1.08339 0.12837,0 0.7532,-0.3306 1.38849,-0.73465 1.08591,-0.69069 1.18861,-0.70663 1.71663,-0.26633 0.55925,0.46631 0.61334,0.95017 0.74478,6.66258 0.0209,0.91138 -0.22411,3.58339 -0.54464,5.93779 -0.32053,2.35439 -0.61293,5.39923 -0.64986,6.7663 -0.0685,2.53927 -0.28543,3.16674 -1.86163,5.38543 -0.4856,0.68354 -1.71843,3.04484 -2.73966,5.24734 -5.46519,11.78703 -10.82192,20.37305 -19.56426,31.35842 -6.03871,7.58807 -10.20549,11.61211 -16.05648,15.50644 -4.39261,2.92364 -6.41232,3.77264 -9.26707,3.89544 -1.82045,0.0783 -2.43447,-0.0233 -3.91529,-0.64795 z m 7.00393,-4.26819 c 0.86276,-0.45626 2.27053,-1.13372 3.12837,-1.50546 2.23945,-0.97046 9.6916,-7.23293 11.95486,-10.04635 0.44827,-0.55724 1.44134,-1.63456 2.20681,-2.39404 0.76548,-0.75949 1.90804,-2.31864 2.53907,-3.46478 0.63101,-1.14615 2.22232,-3.42004 3.53623,-5.05309 1.31393,-1.63305 3.09754,-4.05083 3.96357,-5.37284 0.86606,-1.32201 1.7481,-2.65222 1.96009,-2.95602 0.44072,-0.63157 3.96288,-9.12027 4.1134,-9.91368 0.31838,-1.67822 -2.19653,-0.0186 -10.73356,7.0835 -9.5865,7.97509 -17.93494,16.919 -21.46032,22.99102 -3.91814,6.7485 -5.22924,10.11683 -4.30096,11.04954 0.6047,0.60759 1.34178,0.50801 3.09244,-0.4178 z m -98.02478,-51.22683 c 2.30549,-0.40732 5.15323,-1.21172 6.79299,-1.91881 1.11502,-0.48082 2.32668,-2.33687 3.52689,-5.4026 1.28646,-3.28608 4.02284,-8.17828 9.29996,-16.62684 2.49491,-3.99431 4.81429,-7.7595 5.15418,-8.36708 0.33989,-0.60759 0.83169,-1.4154 1.09289,-1.79515 1.41137,-2.05186 2.18848,-3.38424 2.0441,-3.50464 -0.18172,-0.15153 -16.81654,0.39592 -18.98493,0.62479 -1.85681,0.19599 -2.91279,0.95105 -4.12074,2.94648 -0.9369,1.54768 -3.84149,5.41872 -4.30175,5.73307 -0.4073,0.27818 -1.21866,1.83402 -1.72949,3.31641 -0.28833,0.83669 -1.63098,3.44656 -2.98368,5.79969 -1.35268,2.35313 -3.03241,5.6455 -3.73271,7.31636 -1.20079,2.865 -1.27369,3.22659 -1.28048,6.35205 -0.008,3.78292 0.43609,4.87576 2.24977,5.53355 1.37368,0.4982 4.12809,0.49533 6.973,-0.007 z m 122.01577,-4.67306 c 0.97092,-0.41377 2.63433,-1.642 4.39495,-3.24507 9.34736,-8.51094 12.23644,-11.5402 12.23644,-12.83005 0,-0.76218 -0.14917,-0.95508 -0.85239,-1.10226 -0.46883,-0.0981 -1.18844,-0.0507 -1.59912,0.1053 -2.14497,0.81497 -8.45039,6.11091 -11.91201,10.00491 -1.70381,1.91664 -4.8456,6.45499 -4.8456,6.99953 0,0.34031 0.29105,0.56499 0.92178,0.71159 0.0516,0.0119 0.79678,-0.27779 1.65595,-0.64395 z m -209.96237,19.26343 c -0.4876,-0.0697 -1.05537,-0.29633 -1.26173,-0.50367 -0.41962,-0.42162 0.78703,-1.24207 6.1083,-4.1533 3.69907,-2.02374 7.09917,-4.69722 10.57451,-8.31468 3.13898,-3.26735 4.9677,-5.74254 5.73334,-7.76013 0.5211,-1.3732 0.51806,-1.47113 -0.0624,-2.00598 -0.56832,-0.52365 -0.94208,-0.55729 -5.43999,-0.48956 -4.65083,0.07 -4.89564,0.0455 -6.60858,-0.66243 l -1.77884,-0.73517 -2.32578,1.42561 c -1.27917,0.78408 -4.13009,2.83846 -6.33536,4.56528 -7.31105,5.72484 -16.13175,11.76981 -17.63268,12.08394 -0.43106,0.0902 -1.1856,0.0799 -1.67676,-0.0229 -1.02369,-0.21424 -2.98856,-1.84306 -3.45353,-2.86285 -0.54381,-1.19273 0.72454,-5.16303 4.05198,-12.68389 2.76514,-6.24993 2.16086,-6.95015 -2.6228,-3.03919 -2.09953,1.71649 -3.897,2.91305 -5.19683,3.45946 -1.09293,0.45945 -2.32453,1.21828 -2.73687,1.68631 -0.41234,0.46803 -1.60464,1.30367 -2.64954,1.85699 -1.0449,0.55332 -2.86854,1.64772 -4.05256,2.43201 -4.41968,2.92761 -7.71892,4.27646 -12.25409,5.00992 -5.7702,0.93318 -8.97521,0.36473 -12.0057,-2.12937 -1.75387,-1.44343 -1.90436,-1.6648 -1.90436,-2.80146 0,-1.22961 2.21967,-7.10778 3.13147,-8.29283 0.25289,-0.32868 0.71262,-1.34327 1.02161,-2.25465 0.83618,-2.46628 1.94066,-3.8182 5.78267,-7.0782 3.33126,-2.82661 3.57652,-2.97502 5.83156,-3.52882 3.5992,-0.88388 4.71111,-0.79346 6.51377,0.52971 1.67762,1.23141 2.88949,3.04574 2.88949,4.32595 0,1.36792 -2.22932,3.37433 -8.28106,7.45299 -3.87675,2.61279 -4.91903,3.13145 -6.29293,3.13145 -0.73201,0 -1.57608,0.22445 -2.07518,0.55183 -1.06718,0.7 -1.89757,2.71309 -1.89757,4.60025 0,1.26073 0.11602,1.52679 0.8377,1.9211 1.7599,0.96158 6.59056,-0.19462 12.74917,-3.05145 6.22621,-2.88819 6.68836,-3.20269 7.58764,-5.16361 0.44342,-0.96689 1.32256,-2.62792 1.95366,-3.6912 0.63109,-1.06327 1.5568,-2.86532 2.05712,-4.00455 1.71158,-3.89728 3.63343,-7.87059 4.54182,-9.38998 l 0.90814,-1.51897 2.01052,-0.0809 c 1.80529,-0.0726 2.10111,-0.006 2.89792,0.65906 0.97058,0.80933 1.14813,1.98157 0.55942,3.69328 -0.42415,1.23326 0.0354,1.68907 1.11905,1.10998 1.40037,-0.74834 3.93487,-2.32962 5.37496,-3.35348 1.75314,-1.24642 4.17235,-1.76763 6.14675,-1.3243 1.05387,0.23664 1.41556,0.49386 1.81475,1.29054 0.2991,0.59693 0.41855,1.35059 0.29858,1.88385 -0.10998,0.48887 -1.62764,3.48255 -3.37259,6.65262 -3.116,5.66087 -5.13383,9.66928 -6.23171,12.37918 -0.60333,1.48923 -0.46143,2.63647 0.3261,2.63647 0.64012,0 4.36908,-1.93277 6.98865,-3.6223 2.08643,-1.34568 6.64032,-3.64855 11.04688,-5.58634 1.36617,-0.60077 2.53985,-1.13074 2.60819,-1.17771 0.0683,-0.047 -0.11796,-0.5902 -0.41399,-1.20716 -1.35534,-2.82466 -0.26959,-6.94627 2.40311,-9.12243 3.52058,-2.86653 11.88163,-5.52076 17.39086,-5.52076 1.77085,0 2.18435,0.0985 2.83399,0.67515 1.00988,0.8964 0.72662,2.0115 -0.5674,2.23374 -5.07727,0.87196 -11.46366,3.38774 -14.34177,5.64964 -1.76007,1.38323 -2.2043,2.35021 -1.7633,3.83822 l 0.2957,0.99777 4.47109,0.16714 c 9.06512,0.33889 13.72872,3.03493 12.58855,7.27746 -1.68094,6.25474 -13.27271,16.61335 -22.5578,20.15808 -1.87861,0.71719 -4.06614,1.02635 -5.65533,0.79925 z m -48.92273,-26.952 c 3.80401,-2.88877 5.45508,-5.19869 4.03964,-5.65163 -0.97811,-0.31298 -7.38665,6.00515 -7.38665,7.28246 0,0.71263 0.72853,0.35766 3.34701,-1.63083 z m -41.10287,24.53894 0,-2.07312 1.44819,-0.83086 c 5.3469,-3.06767 12.78577,-10.43033 14.75385,-14.6027 1.48098,-3.13972 1.08283,-3.39202 -5.21291,-3.30333 l -4.86209,0.0685 -2.07211,-0.90245 c -1.33178,-0.58003 -2.42634,-1.31022 -3.06353,-2.04372 -0.94601,-1.08901 -0.99125,-1.26895 -0.98817,-3.93062 0.005,-4.70417 1.46923,-6.40295 7.7601,-9.00599 3.922,-1.62286 8.90204,-2.75909 12.09291,-2.75909 1.89038,0 2.32456,0.0944 2.93826,0.6392 0.74472,0.66103 0.9563,1.69207 0.40548,1.97594 -0.17306,0.0892 -1.42442,0.39884 -2.78083,0.68812 -3.52162,0.75107 -6.88763,2.01183 -10.03801,3.75981 -3.83398,2.12728 -4.87636,3.51225 -4.10684,5.45659 l 0.37584,0.94962 4.37514,0.13418 c 4.85935,0.14901 6.7141,0.52514 9.48162,1.92274 2.59166,1.30881 3.17842,2.08873 3.15003,4.18706 -0.0194,1.43312 -0.25208,2.11143 -1.39042,4.05325 -3.52422,6.01172 -12.19931,13.24554 -20.03097,16.70304 l -2.23554,0.98695 0,-2.07311 z m 246.52113,-38.8741 c -1.3901,-0.57272 -1.17909,-2.62752 0.56581,-5.50995 0.99194,-1.63862 1.82338,-2.17991 3.34837,-2.17991 1.07125,0 2.83815,0.81315 3.44496,1.58541 0.52951,0.6739 0.52156,0.77068 -0.15918,1.9391 -1.82659,3.13513 -5.10166,5.02984 -7.19996,4.16535 z"
       id="path3401"
       inkscape:connector-curvature="0" />
  </g>
  <path
     inkscape:connector-curvature="0"
     style="fill:#70706f"
     d="m 38.028989,13.595922 c -1.40616,-0.101118 -3.152488,-0.401142 -3.85675,-0.662617 -0.742616,-0.275716 -1.290988,-0.821018 -1.515663,-1.507176 -0.141565,-0.432669 -0.17651,-0.938825 -0.206908,-3.0058767 -0.06199,-4.2150262 0.127431,-5.3860833 1.003533,-6.2056224 0.522365,-0.488625 1.162249,-0.7554847 2.242588,-0.9352853 0.895381,-0.149108 7.285182,-0.1413416 8.785945,0.00926 2.23231,0.2259312 3.220641,0.7827767 3.599783,2.02813 0.08591,0.2818432 0.118185,1.4011584 0.118185,4.0827906 0,3.6323908 -0.0024,3.7035488 -0.217181,4.2318508 -0.244071,0.603802 -0.768631,1.138553 -1.381638,1.408511 -1.209211,0.532481 -5.247553,0.793832 -8.571918,0.554762 z m 6.315229,-3.6145777 c 0.062,-0.07502 0.107994,-1.067843 0.12282,-2.660334 0.01959,-2.1149483 10e-4,-2.5552961 -0.111178,-2.6264194 -0.152244,-0.096308 -7.001996,-0.1216301 -7.472215,-0.027637 -0.20943,0.041788 -0.332644,0.1372183 -0.397718,0.307868 -0.134001,0.3516851 -0.214895,4.661418 -0.09081,4.841633 0.0809,0.11741 0.505646,0.150902 2.446073,0.1927191 4.735296,0.101982 5.397719,0.09864 5.502757,-0.02778 z m 25.075228,3.6149887 c -1.289999,-0.09552 -2.745214,-0.330921 -3.500889,-0.565654 -1.142404,-0.35487 -1.642462,-0.926567 -1.911596,-2.18554 -0.126393,-0.591006 -0.139165,-1.1513877 -0.08433,-3.6811687 0.03562,-1.6411972 0.104258,-3.1971493 0.152822,-3.4576677 0.204979,-1.1006969 0.829267,-1.7834085 1.946229,-2.1284038 1.262585,-0.3899811 1.733262,-0.4248429 5.434561,-0.4025547 5.451303,0.032821 6.69642,0.2358085 7.60327,1.2395866 0.508919,0.5633066 0.646881,1.1339403 0.701617,2.9017957 0.06793,2.1918699 -0.09785,5.7612386 -0.292789,6.3049126 -0.346746,0.967222 -1.08218,1.474434 -2.520981,1.738601 -1.680307,0.308521 -5.105629,0.415947 -7.52783,0.236093 z m 6.396835,-3.6407897 c 0.29618,-0.356885 0.281115,-4.8322713 -0.01725,-5.1128426 -0.09545,-0.090074 -1.058358,-0.1358293 -3.876118,-0.1844079 -3.340487,-0.057406 -3.762175,-0.048557 -3.872057,0.083896 -0.146635,0.1766161 -0.306891,4.8288238 -0.175608,5.0960768 0.07227,0.146885 0.300262,0.1668344 2.18595,0.1913764 5.888537,0.07637 5.627098,0.07993 5.755025,-0.07425 z M 0.50337942,7.3905653 0.50274842,1.3175304 1.8948293,1.2982819 c 0.765644,-0.00976 1.4157364,-0.032738 1.4446456,-0.049194 0.028908,-0.01649 1.9921805,0.0031 4.3628235,0.044239 4.5182136,0.077677 4.9099906,0.114608 5.7312046,0.5403279 0.823863,0.4270014 1.227001,1.2111507 1.382993,2.690128 0.268219,2.5429764 -0.467927,4.3150894 -2.036251,4.9018904 -0.721554,0.269968 -2.301703,0.426969 -3.6096206,0.358654 -1.526961,-0.07967 -1.671148,-0.139189 -2.578848,-1.063366 -0.428433,-0.436206 -0.95032,-0.906493 -1.159784,-1.045101 -0.624559,-0.413298 -0.66441,-0.315917 -0.677145,1.654811 -0.004,0.9184328 -0.03793,2.2240508 -0.07104,2.9013738 l -0.06022,1.231492 -2.0597579,0 -2.05975188,0 -6.329e-4,-6.0730228 z M 10.234728,6.4661683 C 10.815619,6.2773113 10.949392,6.082725 10.864258,5.5503075 10.781398,5.0318325 10.58548,4.9224022 9.5021654,4.7894408 8.4698634,4.6627051 5.0766724,4.7517198 4.8840444,4.9106741 c -0.0753,0.061846 -0.118364,0.3513363 -0.118364,0.7897717 0,1.0602475 -0.126494,1.0140115 2.643854,0.9666495 1.854121,-0.0317 2.430674,-0.07274 2.8252246,-0.200952 z m 5.330215,0.949178 0,-6.0955941 3.907662,-0.065736 c 4.101222,-0.069108 7.361478,0.032842 8.326592,0.2602026 1.583712,0.373105 2.367989,1.5664535 2.37454,3.6130951 0.0032,1.5618695 -0.418844,2.8761805 -1.105899,3.4293575 -0.181118,0.14588 -0.616371,0.375857 -0.967217,0.511168 -0.811321,0.312907 -0.940259,0.49446 -0.552234,0.777625 0.886733,0.6470536 2.244605,1.8013166 3.05329,2.5954436 l 0.925408,0.908749 -0.378926,0.08496 c -0.208395,0.04677 -1.188856,0.0725 -2.178804,0.05696 -1.531349,-0.02394 -1.853125,-0.05467 -2.156756,-0.20548 -0.373702,-0.185717 -1.373208,-1.05055 -3.906016,-3.3798046 -2.580717,-2.373316 -2.913475,-2.627765 -3.084113,-2.358143 -0.04747,0.07544 -0.08715,1.380126 -0.08797,2.8998416 -7.69e-4,1.519719 -0.02735,2.830563 -0.05886,2.912975 -0.05009,0.130199 -0.323506,0.149895 -2.084089,0.149895 l -2.026573,0 z m 9.510091,-0.866606 c 0.943228,-0.199832 1.099777,-0.326649 1.099777,-0.891036 0,-0.5458183 -0.06792,-0.6147618 -0.810664,-0.8240236 -0.768593,-0.2165198 -5.116036,-0.2146617 -5.332984,0.00149 -0.197932,0.197942 -0.269982,1.4916643 -0.09136,1.6399303 0.260192,0.215957 4.196147,0.271789 5.135177,0.07285 z m 31.011036,6.8901247 -1.965674,-0.02642 0,-4.3523697 c 0,-4.2060942 -0.004,-4.3556636 -0.18322,-4.4504238 -0.112391,-0.060113 -1.102092,-0.098051 -2.557732,-0.098051 l -2.374496,-5.4e-6 0,-1.6110204 0,-1.6110252 7.113798,0.024266 7.113788,0.024256 -0.01198,1.560091 c -0.0051,0.9312556 -0.05177,1.5838904 -0.10874,1.6191276 -0.05256,0.03248 -1.10053,0.086459 -2.328927,0.1199369 -1.432988,0.039032 -2.279628,0.099235 -2.362294,0.1678988 -0.104473,0.08674 -0.133434,0.9142714 -0.153511,4.3748353 -0.01589,2.7582659 -0.05792,4.2710029 -0.11938,4.2766639 -0.05212,0.0031 -0.979277,-0.002 -2.060395,-0.0179 z m 30.669122,-0.210859 c -1.883726,-0.04167 -3.228633,-0.113218 -3.552402,-0.188184 -1.669886,-0.38784 -2.268021,-1.163378 -2.476256,-3.2106177 -0.140781,-1.38488 -0.04972,-5.7505058 0.135293,-6.4812445 0.29144,-1.1510722 0.929063,-1.7907663 2.104112,-2.1109608 0.781316,-0.2129118 7.29945,-0.38831956 9.97184,-0.26835346 1.045679,0.046898 1.924219,0.10835256 1.952279,0.13633316 0.0279,0.027978 0.0568,0.7740412 0.064,1.6577163 l 0.0118,1.6066899 -5.180346,0.055905 c -4.312977,0.046452 -5.194512,0.078081 -5.264981,0.1894477 -0.04644,0.07364 -0.08563,0.8370841 -0.08662,1.6967721 -10e-4,0.859671 -0.02887,1.90606 -0.06137,2.325272 -0.04822,0.618824 -0.03171,0.789847 0.0876,0.90915 0.127408,0.12738 0.826455,0.156012 5.246437,0.215142 2.804726,0.03768 5.129534,0.09748 5.166274,0.133299 0.037,0.03591 0.0728,0.7678963 0.0798,1.6268563 l 0.0119,1.561733 -0.2904,0.05932 c -0.52556,0.107546 -4.834851,0.154109 -7.921767,0.08581 z M 132.5255,11.659951 c -0.0339,-0.874265 -0.0627,-2.8351017 -0.0627,-4.3574087 0,-2.1212315 -0.0277,-2.7911378 -0.12017,-2.8676368 -0.0751,-0.062259 -1.02725,-0.111176 -2.53409,-0.1300542 l -2.41376,-0.030294 0,-1.6104205 0,-1.610434 7.05743,0 7.05746,0 0.0254,1.5782291 0.026,1.5782353 -2.37405,0.032228 c -1.98281,0.026809 -2.38885,0.0557 -2.46378,0.1742862 -0.0525,0.083905 -0.0898,1.8954017 -0.0901,4.4286667 l -0.001,4.2865739 -1.53937,9.43e-4 c -0.84661,6.32e-4 -1.75621,0.02686 -2.02149,0.0587 l -0.48201,0.05758 -0.0627,-1.589574 z m 21.01504,1.430764 c -0.15642,-0.0708 -0.64652,-0.457086 -1.0895,-0.858562 -2.2876,-2.073842 -3.53921,-3.2190917 -4.48262,-4.1017447 -1.53032,-1.431647 -1.4325,-1.564953 -1.46308,1.9958227 l -0.0243,2.914905 -1.96447,-0.02548 -1.96411,-0.02553 -0.0235,-5.9439607 -0.0237,-5.9439402 5.89777,0.053257 c 3.43047,0.031046 6.08347,0.093723 6.34177,0.1497833 0.98795,0.2146387 1.64088,0.9015091 1.94476,2.0460435 0.2069,0.7790478 0.2033,2.9279019 -0.004,3.6408709 -0.22199,0.756093 -0.49834,1.034093 -1.57916,1.589342 -0.63837,0.327891 -0.94554,0.538182 -0.94554,0.647287 3e-5,0.09117 0.60011,0.673401 1.37457,1.3336682 1.86509,1.590294 2.69869,2.372297 2.69869,2.531338 0,0.191107 -4.26605,0.188567 -4.689,-0.0018 z m -1.07922,-6.9865958 c 0.31026,-0.1368731 0.34638,-0.1926707 0.39344,-0.6105673 0.0283,-0.2529227 0.009,-0.531187 -0.032,-0.6183603 -0.15061,-0.2802961 -0.93222,-0.3762036 -3.50234,-0.4293701 -2.98483,-0.061722 -2.83651,-0.1116394 -2.83651,0.9534505 0,0.4198817 0.0448,0.7317803 0.11874,0.8062483 0.1883,0.193394 5.39548,0.103242 5.85985,-0.1012836 z m 6.93637,7.0020878 c -0.1173,-0.189316 5.76827,-11.0638539 6.39013,-11.8079053 0.15509,-0.1854377 0.27437,-0.1952988 2.65384,-0.219315 l 2.49127,-0.025154 2.22691,4.0734183 c 2.34893,4.2966894 4.11068,7.705647 4.11068,7.954291 0,0.131699 -0.25739,0.145744 -2.23984,0.123125 l -2.23958,-0.02532 -0.45287,-0.844745 c -0.24911,-0.464613 -0.52349,-0.884329 -0.61002,-0.9327 -0.0855,-0.04843 -1.26342,-0.111741 -2.61572,-0.140652 -1.38978,-0.02993 -2.48254,-0.092 -2.51412,-0.142906 -0.0307,-0.04958 0.25865,-0.714441 0.64277,-1.4775476 l 0.69855,-1.387479 0.8674,-0.02714 c 0.59359,-0.01871 0.90178,-0.06844 0.97586,-0.157581 0.0836,-0.1018 -0.0296,-0.407195 -0.52431,-1.393824 -0.636,-1.2720506 -0.74028,-1.4217914 -0.93437,-1.3472566 -0.2506,0.096132 -1.52621,2.3310466 -3.35947,5.8867992 l -0.98557,1.911193 -2.26828,0.02686 c -1.24732,0.01353 -2.28836,-0.0039 -2.31326,-0.04626 z m -63.595702,-6.0042317 0,-6.0313655 2.99952,0.062642 c 1.649642,0.034484 4.569762,0.062636 6.488942,0.062636 l 3.48973,0 0,1.5157009 0,1.5156847 -3.71829,0.011304 c -2.04491,0.00494 -4.03784,0.03855 -4.42864,0.071029 l -0.710482,0.058664 -0.0254,2.7259193 c -0.0199,2.132687 9.5e-4,2.734306 0.0947,2.764367 0.0657,0.02111 2.059522,0.06332 4.430162,0.09422 l 4.31025,0.05558 0,1.537787 0,1.537784 -6.46539,0.02428 -6.465382,0.02426 z m 13.925472,-0.03282 0,-6.06277 3.16135,0 3.16139,0 0.36734,0.4039379 c 0.20197,0.2221701 1.62121,1.9060082 3.15368,3.7418599 1.53253,1.8358622 2.83874,3.3379222 2.90286,3.3379222 0.0637,0 0.14228,-0.06746 0.174,-0.149892 0.0317,-0.08232 0.0575,-1.738169 0.0575,-3.6794618 l 0,-3.529633 1.91125,-0.061603 c 1.05108,-0.033965 1.91937,-0.051319 1.92942,-0.038658 0.007,0.011556 0.0344,2.7298758 0.0544,6.0383594 l 0.0362,6.0154171 -3.14082,0.02485 -3.14052,0.02495 -0.51558,-0.593333 c -0.28361,-0.326325 -1.4639,-1.778935 -2.62303,-3.2280221 -2.38961,-2.987422 -3.17396,-3.8686521 -3.37477,-3.7916199 -0.11532,0.044178 -0.13608,0.6248079 -0.13608,3.7694329 l 0,3.7171641 -1.15164,0.0619 c -0.63345,0.03413 -1.52868,0.06189 -1.9894,0.06189 l -0.83766,0 0,-6.0627901 z m 68.751,6.0105797 c -0.0381,-0.04073 -0.0705,-2.728802 -0.0705,-5.9734167 0,-3.2446081 0.031,-5.9141832 0.0705,-5.9323859 0.0379,-0.018254 0.93412,-0.016894 1.98934,0.0025 l 1.91829,0.036123 0,4.18801 c 0,3.131036 0.0283,4.216705 0.11446,4.301688 0.0837,0.08448 1.06532,0.113721 3.82754,0.113721 l 3.71372,0 0.0588,1.0183466 c 0.0312,0.560099 0.0829,1.284796 0.11227,1.610435 l 0.0519,0.592064 -5.0136,0 c -2.75777,0 -5.39334,0.02616 -5.85726,0.05824 -0.46396,0.03209 -0.87544,0.02497 -0.91435,-0.01583 z M 100.72694,7.5204853 c -9e-4,-0.586854 -0.0276,-1.226868 -0.0599,-1.422253 l -0.0586,-0.3552317 3.1943,0 3.19426,0 -0.032,1.3972697 -0.0316,1.397273 -3.10239,0.02494 -3.10248,0.02501 -9.3e-4,-1.067023 z"
     id="path3414"
     sodipodi:nodetypes="csssssccscscccscsscsccsssscssssssscssccsccccccsssssscccccccssscsssccssccssscsccssccscccsscsccccscscccccccssscccccsssscccscccsscccccccscscccccccscscccccccssccccccscscscsscccccssccccscssscccscscccccscscccsscccsscscscccccccccccsscscscscccsssscssccccscccscsccccscccccccccccccc" />
</svg>
